<svg xmlns="http://www.w3.org/2000/svg" width="97.001" height="251.132" viewBox="0 0 97.001 251.132"><path d="M46.139,252.5c-4.981,0-12.119-1.209-17.91-5.735l-.2-.158,2.017-48.127-2-20.724.5-.048h-.5V140.448h.5l.046-.5a137.989,137.989,0,0,0,34.686-1.365,80.382,80.382,0,0,0,9.58-2.3,89.741,89.741,0,0,0-9.73-3.976,151.358,151.358,0,0,0-26.378-6.319c-3.232.551-6.142.971-8.149,1.114L5.924,130.461l11.631-17.7a31.125,31.125,0,0,1-9.772-1.294,15.414,15.414,0,0,1-4.534-2.259A9.263,9.263,0,0,1,.243,105.5c-1.318-3.03-.878-6.851,1.308-11.355C4.019,89.063,8.758,83.031,15.637,76.22l.059-.059.075-.036q.874-.423,1.878-.888.031-1.661.071-3.288c-2.535.751-4.49.928-5.832.523a2.876,2.876,0,0,1-1.873-1.539,15.225,15.225,0,0,1-1.389-4.918,14.278,14.278,0,0,1,.8-6.391c1.448-4,4.641-7.7,9.524-11.033q.889-10.344,2.34-18.518c1.478-8.315,3.4-14.928,5.728-19.657,2.162-4.4,4.7-7.234,7.533-8.414a8.645,8.645,0,0,1,6.782.122,19.73,19.73,0,0,1,6.643,4.912,20.2,20.2,0,0,1,5.408,14.256c.023,4.859-1.262,10.38-3.818,16.409q-.243.574-.5,1.152a46.806,46.806,0,0,1,6.183.042,32.109,32.109,0,0,1,9.888,2.239,22.345,22.345,0,0,1,12.552,12.9,27.457,27.457,0,0,1,1.926,9.033,30.223,30.223,0,0,1-.313,6.013,31.453,31.453,0,0,1,2.29,2.19,28.588,28.588,0,0,1,6.367,10.541,32.705,32.705,0,0,1,1.55,12.325,23.537,23.537,0,0,1,2.128,2.822,24.252,24.252,0,0,1,3.022,6.92A28.679,28.679,0,0,1,95.576,111a34.792,34.792,0,0,1-2.329,12.6l-.014.035-.019.032q-.294.511-.621,1.009,1.52,2.214,3.125,4.871l.045.074.017.085a38.39,38.39,0,0,1,.41,12.3,32.218,32.218,0,0,1-1.638,6.869,25.652,25.652,0,0,1-2.736,5.463,34.312,34.312,0,0,1,1.062,7.929,28.265,28.265,0,0,1-.649,6.536,22.77,22.77,0,0,1-2.45,6.385,20.944,20.944,0,0,1-2.822,3.827,25.379,25.379,0,0,1,1.021,7.631c-.2,7.649-4.224,14.448-11.964,20.208l-.058.043-.067.025a34.637,34.637,0,0,1-7.553,1.7,49.824,49.824,0,0,1-6.186.352q.129.188.255.374c3.019,4.464,4.793,8.482,5.273,11.941l0,.022c.883,9.362-1.632,27.863-17.469,30.878h-.006A24.026,24.026,0,0,1,46.139,252.5Zm-17.092-6.366c7.376,5.631,16.928,5.784,20.983,5.068,15.121-2.88,17.508-20.738,16.658-29.79-.461-3.3-2.18-7.176-5.109-11.508q-.32-.473-.659-.954-1.716-.047-3.455-.206a56.363,56.363,0,0,1-13.073-2.794,59.393,59.393,0,0,1-13.384-6.575Zm32.4-38.165a40.513,40.513,0,0,0,14.029-1.962c7.443-5.558,11.313-12.08,11.5-19.388a23.943,23.943,0,0,0-.839-6.771,23,23,0,0,1-3.6,2.831,33.864,33.864,0,0,1-12.765,4.572l-.031.005h-.032a108.453,108.453,0,0,1-20.49-1.364A69.368,69.368,0,0,1,37.7,183.056q-1.251-.438-2.4-.917a177.324,177.324,0,0,1,16.688,14.806A95.5,95.5,0,0,1,61.447,207.968Zm-30.428-9.785a56.514,56.514,0,0,0,29.164,9.747,96.755,96.755,0,0,0-8.915-10.284A181.47,181.47,0,0,0,30.1,179.454q-.5-.322-.96-.656Zm-.372-19.571c4.353,2.817,10.768,4.977,18.738,6.294a107.456,107.456,0,0,0,20.259,1.352c7.013-1.167,12.434-3.683,16.183-7.5a41.253,41.253,0,0,0-8.621-14.648,35.23,35.23,0,0,1-4.958.79c-22.483,2.021-37.627-1.547-43.211-3.975v16.525C29.459,177.749,30,178.139,30.647,178.612ZM78.3,163.829a48.272,48.272,0,0,1,4.628,6.268,36.811,36.811,0,0,1,3.693,7.806,20.016,20.016,0,0,0,2.3-3.216c3.48-6.058,3.511-13.347,2.143-19.277A23.17,23.17,0,0,1,78.3,163.829Zm-49.26-4c5.108,2.382,20.241,6.131,43.122,4.075a34.652,34.652,0,0,0,4.278-.646,47.823,47.823,0,0,0-4.552-4.326l-.019-.016c-8.5-7.788-31.364-14.966-42.829-17.827Zm43.495-1.659a49.8,49.8,0,0,1,5.021,4.823,22.327,22.327,0,0,0,12.769-8.269q.213-.286.416-.578c-.275-1.008-.589-1.968-.93-2.866-1.652-3.984-5.029-7.708-10.039-11.069a55.048,55.048,0,0,0-5.623-3.277,80.575,80.575,0,0,1-10.7,2.637,126.713,126.713,0,0,1-19,1.846c-3.57.093-7.221.055-10.663-.106,4.376,1.214,10.748,3.133,17.528,5.684a119.47,119.47,0,0,1,12.1,5.241A42.167,42.167,0,0,1,72.532,158.168Zm2.926-21.681a54.587,54.587,0,0,1,4.868,2.891c5.179,3.474,8.681,7.351,10.408,11.523l.005.013c.262.688.5,1.4.718,2.121,4.416-7.247,4.63-16.744,3.361-23.05-.983-1.623-1.924-3.1-2.833-4.437a29.071,29.071,0,0,1-10.832,8.565A51.248,51.248,0,0,1,75.458,136.488ZM39.748,125.46c1.645.278,3.3.581,4.927.906a143.43,143.43,0,0,1,18.77,5,88.64,88.64,0,0,1,10.769,4.48c8-2.681,13.825-6.461,17.168-11.173-5.275-7.553-9.482-10.577-14.337-12.211q-2.175,1.418-4.681,2.764a103.7,103.7,0,0,1-17.073,7.068l-.045.012C51.524,123.138,45.43,124.422,39.748,125.46ZM18.814,112.668,7.985,129.145,28.5,126.11c1.294-.091,2.974-.3,4.878-.588-2.167-.28-3.848-.45-4.888-.545l-.443-.04-.382-14.376C24.2,111.265,21.149,112.013,18.814,112.668Zm10.211,11.355c2.424.23,5.035.555,7.711.957,6.348-1.087,13.921-2.673,18.271-3.644a93.3,93.3,0,0,0,20.782-9.263,70.607,70.607,0,0,0-7.233-1.5c-2.36-.409-5.036-.873-8.011-1.574-8.886-2.094-21.887-.6-31.883,1.365Zm49.052-12.25a22.293,22.293,0,0,1,4.233,2.095c3.241,2.059,6.331,5.21,9.666,9.919q.183-.291.354-.588c2.733-7.021,3.761-17.449-1.537-25.7A22.862,22.862,0,0,0,89.4,95.56q-.057.624-.133,1.255a9.279,9.279,0,0,1-1.276,4.816,24.051,24.051,0,0,1-5.188,6.425A43.138,43.138,0,0,1,78.077,111.773Zm-61.8-34.784C9.515,83.7,4.862,89.616,2.45,94.586.4,98.816-.037,102.355,1.16,105.105c1.065,2.448,3.4,4.269,6.931,5.413a30.455,30.455,0,0,0,9.892,1.237q-.621-19.3-.353-35.406Q16.921,76.68,16.281,76.989Zm2.356-1.106q-.282,16.159.337,35.6l8.617-3.786-.567-21.359.343-.121c4.821-1.7,23.873-2.853,33.273-3.222h.048A67.211,67.211,0,0,1,70.97,84.331a30.281,30.281,0,0,0,7.252-14.857,32.769,32.769,0,0,0-13.593-6.769C50.021,63.112,29.44,70.94,18.637,75.883ZM50.27,106.991a46.683,46.683,0,0,1,10.5,1.035c2.946.694,5.605,1.155,7.952,1.562a61.735,61.735,0,0,1,8.161,1.776,42.822,42.822,0,0,0,5.243-4.045c4.769-4.362,6.3-8.274,6.138-10.48l0-.049.006-.048q.141-1.151.213-2.259c-3.936-4.343-9.669-7.371-17.135-9.055q-.617.682-1.277,1.342a50.8,50.8,0,0,1-16.24,10.492L28.608,108.342l.027,1.01A118.144,118.144,0,0,1,50.27,106.991Zm-22.651,1.786-3.449,1.515c1.1-.249,2.261-.5,3.47-.743Zm.423-21.729.537,20.215L53.437,96.341c7.478-3.172,12.906-7.033,16.763-11.16A67.674,67.674,0,0,0,60.655,84C51.511,84.355,33.259,85.446,28.043,87.047Zm44.045-2.464a41.7,41.7,0,0,1,8.673,3.029,28.275,28.275,0,0,1,7.787,5.494c.307-10.558-4.009-17.968-9.45-22.871a30.17,30.17,0,0,1-1.217,4.433A31.9,31.9,0,0,1,72.088,84.583ZM18.728,71.63q-.04,1.557-.071,3.145c11-4.992,31.432-12.685,46-13.071l.059,0,.058.012a32.53,32.53,0,0,1,8.172,3.043,34.242,34.242,0,0,1,5.448,3.57,27.541,27.541,0,0,0-1.637-13.915l0-.008A21.38,21.38,0,0,0,64.75,42.057,36.289,36.289,0,0,0,48.6,39.871a93.416,93.416,0,0,1-7.876,13.571,112.228,112.228,0,0,1-9.812,12.3l-.047.051-.06.036a72.824,72.824,0,0,1-9.686,4.915Q19.856,71.253,18.728,71.63Zm.11-21.746c-4.325,3.087-7.165,6.46-8.476,10.081a13.524,13.524,0,0,0,.557,10.542,1.893,1.893,0,0,0,1.257,1.008c1.266.382,3.25.092,5.571-.623Q18.056,59.5,18.839,49.884Zm1.064-.733q-.822,9.758-1.145,21.41a64.34,64.34,0,0,0,11.469-5.555A106.911,106.911,0,0,0,47.454,39.958,68.059,68.059,0,0,0,27.235,45.1,55.427,55.427,0,0,0,19.9,49.151ZM37.679,2.373a7.085,7.085,0,0,0-2.748.552c-2.606,1.084-4.967,3.753-7.02,7.931-2.281,4.645-4.179,11.169-5.641,19.391q-1.388,7.81-2.26,17.638a57.771,57.771,0,0,1,6.808-3.7l.014-.006a71.028,71.028,0,0,1,18-4.925q1.572-.207,3.1-.325.365-.8.711-1.618c5.456-12.865,4.986-22.82-1.4-29.589C44.79,5.119,41.334,2.373,37.679,2.373Z" transform="translate(0.499 -1.368)" fill="#84829a"/></svg>