<svg xmlns="http://www.w3.org/2000/svg" xmlns:xlink="http://www.w3.org/1999/xlink" width="480" height="361" viewBox="0 0 480 361"><defs><linearGradient id="a" x1="0.709" y1="0.028" x2="0" y2="1" gradientUnits="objectBoundingBox"><stop offset="0" stop-color="#747def"/><stop offset="1" stop-color="#5e3be1"/></linearGradient><clipPath id="b"><rect width="361" height="480" transform="translate(528 3893) rotate(90)" stroke="#6246e5" stroke-width="1" fill="url(#a)"/></clipPath></defs><g transform="translate(-48 -3893)" clip-path="url(#b)"><path d="M126.218,1a126.322,126.322,0,0,0-25.237,2.54A124.621,124.621,0,0,0,56.207,22.355,125.432,125.432,0,0,0,10.84,77.369a124.274,124.274,0,0,0-7.3,23.47,126.093,126.093,0,0,0,0,50.4,124.254,124.254,0,0,0,18.84,44.709,125.563,125.563,0,0,0,55.093,45.3,124.709,124.709,0,0,0,23.5,7.286,126.625,126.625,0,0,0,50.474,0,124.621,124.621,0,0,0,44.773-18.814A125.43,125.43,0,0,0,241.6,174.71a124.273,124.273,0,0,0,7.3-23.47,126.093,126.093,0,0,0,0-50.4,124.255,124.255,0,0,0-18.84-44.709,125.563,125.563,0,0,0-55.093-45.3,124.708,124.708,0,0,0-23.5-7.286A126.322,126.322,0,0,0,126.218,1m0-1A126.04,126.04,0,1,1,0,126.039,126.129,126.129,0,0,1,126.218,0Z" transform="translate(410.545 4094.984) rotate(90)" fill="#6246e5"/><path d="M141.165,1a141.4,141.4,0,0,0-28.249,2.844A139.5,139.5,0,0,0,62.8,24.9,140.4,140.4,0,0,0,12.014,86.485a139.107,139.107,0,0,0-8.167,26.271,141.142,141.142,0,0,0,0,56.417A139.086,139.086,0,0,0,24.937,219.22a140.551,140.551,0,0,0,61.669,50.712,139.6,139.6,0,0,0,26.309,8.155,141.737,141.737,0,0,0,56.5,0,139.5,139.5,0,0,0,50.118-21.06,140.4,140.4,0,0,0,50.783-61.582,139.111,139.111,0,0,0,8.167-26.271,141.142,141.142,0,0,0,0-56.417,139.086,139.086,0,0,0-21.089-50.046A140.551,140.551,0,0,0,195.723,12a139.6,139.6,0,0,0-26.309-8.155A141.4,141.4,0,0,0,141.165,1m0-1c77.963,0,141.165,63.112,141.165,140.965S219.128,281.93,141.165,281.93,0,218.818,0,140.965,63.2,0,141.165,0Z" transform="translate(438.738 4070.073) rotate(90)" fill="#6246e5"/><path d="M154.451,1a154.8,154.8,0,0,0-30.927,3.113A152.72,152.72,0,0,0,68.655,27.169a153.711,153.711,0,0,0-55.6,67.419A152.293,152.293,0,0,0,4.118,123.35a154.521,154.521,0,0,0,0,61.765A152.273,152.273,0,0,0,27.206,239.9a153.873,153.873,0,0,0,67.515,55.518,152.833,152.833,0,0,0,28.8,8.928,155.174,155.174,0,0,0,61.854,0A152.72,152.72,0,0,0,240.246,281.3a153.711,153.711,0,0,0,55.6-67.419,152.293,152.293,0,0,0,8.941-28.762,154.521,154.521,0,0,0,0-61.765A152.273,152.273,0,0,0,281.7,68.56a153.873,153.873,0,0,0-67.515-55.518,152.833,152.833,0,0,0-28.8-8.928A154.8,154.8,0,0,0,154.451,1m0-1C239.751,0,308.9,69.052,308.9,154.232s-69.15,154.232-154.451,154.232S0,239.413,0,154.232,69.15,0,154.451,0Z" transform="translate(462.785 4048.483) rotate(90)" fill="#6246e5"/><path d="M166.076,1a166.528,166.528,0,0,0-33.27,3.349,164.292,164.292,0,0,0-59.026,24.8,165.357,165.357,0,0,0-59.809,72.526,163.836,163.836,0,0,0-9.618,30.941,166.226,166.226,0,0,0,0,66.444A163.808,163.808,0,0,0,29.191,258a165.53,165.53,0,0,0,72.629,59.724,164.409,164.409,0,0,0,30.985,9.6,166.929,166.929,0,0,0,66.54,0,164.292,164.292,0,0,0,59.026-24.8A165.358,165.358,0,0,0,318.18,230a163.836,163.836,0,0,0,9.618-30.941,166.227,166.227,0,0,0,0-66.444,163.807,163.807,0,0,0-24.838-58.941,165.53,165.53,0,0,0-72.629-59.724,164.406,164.406,0,0,0-30.985-9.6A166.528,166.528,0,0,0,166.076,1m0-1C257.8,0,332.152,74.25,332.152,165.841S257.8,331.683,166.076,331.683,0,257.433,0,165.841,74.355,0,166.076,0Z" transform="translate(490.149 4028.554) rotate(90)" fill="#6246e5"/><path d="M177.286,1a177.838,177.838,0,0,0-35.529,3.577A175.449,175.449,0,0,0,78.723,31.064a176.586,176.586,0,0,0-63.87,77.452A174.96,174.96,0,0,0,4.581,141.558a177.515,177.515,0,0,0,0,70.956,174.934,174.934,0,0,0,26.525,62.944,176.77,176.77,0,0,0,77.562,63.78,175.575,175.575,0,0,0,33.09,10.257,178.262,178.262,0,0,0,71.058,0,175.449,175.449,0,0,0,63.034-26.487,176.586,176.586,0,0,0,63.87-77.452,174.957,174.957,0,0,0,10.271-33.042,177.513,177.513,0,0,0,0-70.956,174.933,174.933,0,0,0-26.524-62.944A176.77,176.77,0,0,0,245.9,14.834a175.575,175.575,0,0,0-33.09-10.257A177.838,177.838,0,0,0,177.286,1m0-1C275.2,0,354.572,79.262,354.572,177.036S275.2,354.071,177.286,354.071,0,274.81,0,177.036,79.374,0,177.286,0Z" transform="translate(516.683 4009.455) rotate(90)" fill="#6246e5"/><path d="M194.724,1a195.43,195.43,0,0,0-39.044,3.93A192.8,192.8,0,0,0,86.411,34.038a194.053,194.053,0,0,0-70.188,85.113A192.269,192.269,0,0,0,4.936,155.461a195.072,195.072,0,0,0,0,77.975,192.237,192.237,0,0,0,29.148,69.17A194.256,194.256,0,0,0,119.318,372.7a192.944,192.944,0,0,0,36.363,11.272,195.9,195.9,0,0,0,78.087,0,192.8,192.8,0,0,0,69.269-29.108,194.054,194.054,0,0,0,70.188-85.113,192.269,192.269,0,0,0,11.287-36.311,195.072,195.072,0,0,0,0-77.975,192.238,192.238,0,0,0-29.148-69.17A194.257,194.257,0,0,0,270.131,16.2,192.942,192.942,0,0,0,233.768,4.93,195.43,195.43,0,0,0,194.724,1m0-1C302.267,0,389.448,87.058,389.448,194.449S302.267,388.9,194.724,388.9,0,301.84,0,194.449,87.181,0,194.724,0Z" transform="translate(551.51 3978.731) rotate(90)" fill="#6246e5"/></g></svg>